<?xml version="1.0" encoding="UTF-8" standalone="no"?>
<!-- Created with Inkscape (http://www.inkscape.org/) -->

<svg
   version="1.1"
   id="svg1"
   width="3003.6267"
   height="2443.3601"
   viewBox="0 0 3003.6267 2443.3601"
   sodipodi:docname="vecteezy_ios-icon-logo-software-phone-apple-symbol-with-name-black_21496368.eps"
   xmlns:inkscape="http://www.inkscape.org/namespaces/inkscape"
   xmlns:sodipodi="http://sodipodi.sourceforge.net/DTD/sodipodi-0.dtd"
   xmlns="http://www.w3.org/2000/svg"
   xmlns:svg="http://www.w3.org/2000/svg">
  <defs
     id="defs1" />
  <sodipodi:namedview
     id="namedview1"
     pagecolor="#ffffff"
     bordercolor="#000000"
     borderopacity="0.25"
     inkscape:showpageshadow="2"
     inkscape:pageopacity="0.0"
     inkscape:pagecheckerboard="0"
     inkscape:deskcolor="#d1d1d1">
    <inkscape:page
       x="0"
       y="0"
       inkscape:label="1"
       id="page1"
       width="3003.6267"
       height="2443.3601"
       margin="0"
       bleed="0" />
  </sodipodi:namedview>
  <g
     id="g1"
     inkscape:groupmode="layer"
     inkscape:label="1">
    <g
       id="group-R5">
      <path
         id="path2"
         d="M 22527.2,18321.4 22525.7,9162.6 22524.2,0 0,3.80078 1.5,9162.6 3,18325.2 l 22524.2,-3.8"
         style="fill:#ffffff;fill-opacity:1;fill-rule:nonzero;stroke:none"
         transform="matrix(0.13333333,0,0,-0.13333333,0,2443.36)" />
      <path
         id="path3"
         d="m 19971.4,7746.2 c 0,-817.5 -657.8,-1329.8 -1698.3,-1329.8 -991.2,0 -1640.4,489.4 -1673.8,1282.5 h 745.7 c 49.1,-396.6 445.6,-656.2 970.3,-656.2 519.2,0 880.6,256.2 880.6,614 0,310.6 -221,489.6 -763.1,617.6 l -557.9,131.59 c -794.8,182.49 -1170.3,564.95 -1170.3,1178.96 0,763.25 664.9,1279.05 1601.9,1279.05 949.1,0 1575.5,-512.3 1593,-1270.27 h -733.3 c -35.1,401.81 -372,643.87 -865,643.87 -486,0 -814.1,-238.58 -814.1,-596.45 0,-286.02 217.5,-454.45 745.7,-579.01 l 494.7,-114.05 c 873.7,-199.96 1243.9,-559.64 1243.9,-1201.79"
         style="fill:#040606;fill-opacity:1;fill-rule:nonzero;stroke:none"
         transform="matrix(0.13333333,0,0,-0.13333333,0,2443.36)" />
      <path
         id="path4"
         d="m 14244.9,7072.5 c -770.2,0 -1256.2,608.8 -1256.2,1566.71 0,959.71 486,1568.49 1256.2,1568.49 766.7,0 1256.2,-608.78 1256.2,-1568.49 0,-957.91 -489.5,-1566.71 -1256.2,-1566.71 z m 0,3791.4 c -1256.2,0 -2044,-856.2 -2044,-2224.69 0,-1368.41 787.8,-2222.81 2044,-2222.81 1252.7,0 2040.4,852.6 2040.4,2222.81 0,1368.49 -787.7,2224.69 -2040.4,2224.69"
         style="fill:#040606;fill-opacity:1;fill-rule:nonzero;stroke:none"
         transform="matrix(0.13333333,0,0,-0.13333333,0,2443.36)" />
      <path
         id="path5"
         d="m 11029,9649.82 h 742.1 V 6488.3 H 11029 v 3161.52"
         style="fill:#040606;fill-opacity:1;fill-rule:nonzero;stroke:none"
         transform="matrix(0.13333333,0,0,-0.13333333,0,2443.36)" />
      <path
         id="path6"
         d="m 10986.9,10467.4 c 0,226.3 182.5,405.2 412.3,405.2 231.6,0 414.1,-178.9 414.1,-405.2 0,-224.6 -180.8,-403.5 -414.1,-403.5 -229.8,0 -412.3,178.9 -412.3,403.5"
         style="fill:#040606;fill-opacity:1;fill-rule:nonzero;stroke:none"
         transform="matrix(0.13333333,0,0,-0.13333333,0,2443.36)" />
      <path
         id="path7"
         d="m 9650.12,7313.5 c -49.11,-131.5 -95.83,-256.4 -147.16,-376.8 -122.68,-285.4 -269.83,-546.2 -437.01,-787 -229.63,-327.8 -419.05,-555.2 -563.98,-682.3 -225.18,-207.3 -466.09,-312.1 -724.65,-318.8 -185.13,0 -408.08,53.5 -668.86,160.5 -260.93,107.1 -501.69,158.3 -720.19,158.3 -229.63,0 -477.06,-53.4 -740.22,-158.3 -265.22,-107 -477.05,-162.7 -639.78,-167.2 -247.59,-11.1 -495.02,98.1 -740.22,327.9 -158.27,138 -354.53,372.3 -588.61,704.4 -251.88,356.8 -461.49,766.9 -624.21,1237.5 -174.01,508.2 -260.94,998.74 -260.94,1475.8 0,546.33 118.24,1016.71 354.54,1409.1 184.97,316.7 432.56,566.3 740.21,749.1 309.89,182.9 642.01,276.5 1000.99,283.2 196.26,0 454.81,-60.3 775.98,-180.5 318.78,-120.5 523.94,-180.7 615.31,-180.7 66.9,0 294.31,71.3 682.21,214 365.66,131.6 673.32,185.2 927.42,165 684.6,-55.6 1199.48,-325.5 1540.66,-811.6 -613.08,-370 -914.07,-889.43 -909.62,-1556.07 4.45,-519.49 193.87,-952.03 563.99,-1295.43 167.33,-158.3 354.53,-283.2 564.14,-370.1"
         style="fill:#040606;fill-opacity:1;fill-rule:nonzero;stroke:none"
         transform="matrix(0.13333333,0,0,-0.13333333,0,2443.36)" />
      <path
         id="path8"
         d="m 6227.76,11353.4 c -6.67,49 -8.89,100.4 -8.89,153.9 0,390.2 169.4,809.2 472.61,1150.4 151.6,173.9 343.4,316.6 575.26,432.6 231.85,113.6 452.58,176 657.74,187.2 4.45,-53.4 8.9,-109.2 8.9,-162.8 0,-407.9 -149.38,-786.9 -445.91,-1139.2 -356.76,-419.2 -789.32,-660 -1259.71,-622.1"
         style="fill:#040606;fill-opacity:1;fill-rule:nonzero;stroke:none"
         transform="matrix(0.13333333,0,0,-0.13333333,0,2443.36)" />
    </g>
  </g>
</svg>
